<?xml version="1.0" encoding="UTF-8" standalone="no"?>
<!-- Created with Inkscape (http://www.inkscape.org/) -->

<svg
   width="210mm"
   height="297mm"
   viewBox="0 0 210 297"
   version="1.1"
   id="svg5"
   inkscape:version="1.2.2 (b0a8486541, 2022-12-01)"
   sodipodi:docname="illumina.svg"
   xmlns:inkscape="http://www.inkscape.org/namespaces/inkscape"
   xmlns:sodipodi="http://sodipodi.sourceforge.net/DTD/sodipodi-0.dtd"
   xmlns="http://www.w3.org/2000/svg"
   xmlns:svg="http://www.w3.org/2000/svg">
  <sodipodi:namedview
     id="namedview7"
     pagecolor="#ffffff"
     bordercolor="#000000"
     borderopacity="0.25"
     inkscape:showpageshadow="2"
     inkscape:pageopacity="0.0"
     inkscape:pagecheckerboard="0"
     inkscape:deskcolor="#d1d1d1"
     inkscape:document-units="mm"
     showgrid="false"
     inkscape:zoom="10.989562"
     inkscape:cx="629.27893"
     inkscape:cy="539.37544"
     inkscape:window-width="1501"
     inkscape:window-height="991"
     inkscape:window-x="26"
     inkscape:window-y="23"
     inkscape:window-maximized="0"
     inkscape:current-layer="g3571" />
  <defs
     id="defs2">
    <inkscape:path-effect
       effect="bspline"
       id="path-effect2797"
       is_visible="true"
       lpeversion="1"
       weight="33.333333"
       steps="2"
       helper_size="0"
       apply_no_weight="true"
       apply_with_weight="true"
       only_selected="false" />
    <inkscape:path-effect
       effect="bspline"
       id="path-effect2729"
       is_visible="true"
       lpeversion="1"
       weight="33.333333"
       steps="2"
       helper_size="0"
       apply_no_weight="true"
       apply_with_weight="true"
       only_selected="false" />
    <inkscape:path-effect
       effect="bspline"
       id="path-effect2569"
       is_visible="true"
       lpeversion="1"
       weight="33.333333"
       steps="2"
       helper_size="0"
       apply_no_weight="true"
       apply_with_weight="true"
       only_selected="false" />
    <inkscape:path-effect
       effect="bspline"
       id="path-effect2391"
       is_visible="true"
       lpeversion="1"
       weight="33.333333"
       steps="2"
       helper_size="0"
       apply_no_weight="true"
       apply_with_weight="true"
       only_selected="false" />
    <inkscape:path-effect
       effect="bspline"
       id="path-effect2387"
       is_visible="true"
       lpeversion="1"
       weight="33.333333"
       steps="2"
       helper_size="0"
       apply_no_weight="true"
       apply_with_weight="true"
       only_selected="false" />
    <inkscape:path-effect
       effect="bspline"
       id="path-effect2383"
       is_visible="true"
       lpeversion="1"
       weight="33.333333"
       steps="2"
       helper_size="0"
       apply_no_weight="true"
       apply_with_weight="true"
       only_selected="false" />
    <inkscape:perspective
       sodipodi:type="inkscape:persp3d"
       inkscape:vp_x="-34.457923 : 117.58737 : 1"
       inkscape:vp_y="22.972464 : 704.31155 : 0"
       inkscape:vp_z="300.64676 : 101.54363 : 1"
       inkscape:persp3d-origin="131.95732 : 74.702085 : 1"
       id="perspective2243" />
    <inkscape:path-effect
       effect="bspline"
       id="path-effect1975"
       is_visible="true"
       lpeversion="1"
       weight="33.333333"
       steps="2"
       helper_size="0"
       apply_no_weight="true"
       apply_with_weight="true"
       only_selected="false" />
    <inkscape:path-effect
       effect="bspline"
       id="path-effect1533"
       is_visible="true"
       lpeversion="1"
       weight="33.333333"
       steps="2"
       helper_size="0"
       apply_no_weight="true"
       apply_with_weight="true"
       only_selected="false" />
    <inkscape:path-effect
       effect="bspline"
       id="path-effect1533-3"
       is_visible="true"
       lpeversion="1"
       weight="33.333333"
       steps="2"
       helper_size="0"
       apply_no_weight="true"
       apply_with_weight="true"
       only_selected="false" />
    <inkscape:path-effect
       effect="bspline"
       id="path-effect1533-3-0"
       is_visible="true"
       lpeversion="1"
       weight="33.333333"
       steps="2"
       helper_size="0"
       apply_no_weight="true"
       apply_with_weight="true"
       only_selected="false" />
    <inkscape:path-effect
       effect="bspline"
       id="path-effect1533-3-0-2"
       is_visible="true"
       lpeversion="1"
       weight="33.333333"
       steps="2"
       helper_size="0"
       apply_no_weight="true"
       apply_with_weight="true"
       only_selected="false" />
    <inkscape:path-effect
       effect="bspline"
       id="path-effect1533-3-0-1"
       is_visible="true"
       lpeversion="1"
       weight="33.333333"
       steps="2"
       helper_size="0"
       apply_no_weight="true"
       apply_with_weight="true"
       only_selected="false" />
    <inkscape:path-effect
       effect="bspline"
       id="path-effect2387-7"
       is_visible="true"
       lpeversion="1"
       weight="33.333333"
       steps="2"
       helper_size="0"
       apply_no_weight="true"
       apply_with_weight="true"
       only_selected="false" />
    <inkscape:path-effect
       effect="bspline"
       id="path-effect2797-2"
       is_visible="true"
       lpeversion="1"
       weight="33.333333"
       steps="2"
       helper_size="0"
       apply_no_weight="true"
       apply_with_weight="true"
       only_selected="false" />
    <inkscape:path-effect
       effect="bspline"
       id="path-effect2797-2-7"
       is_visible="true"
       lpeversion="1"
       weight="33.333333"
       steps="2"
       helper_size="0"
       apply_no_weight="true"
       apply_with_weight="true"
       only_selected="false" />
    <inkscape:path-effect
       effect="bspline"
       id="path-effect2797-9"
       is_visible="true"
       lpeversion="1"
       weight="33.333333"
       steps="2"
       helper_size="0"
       apply_no_weight="true"
       apply_with_weight="true"
       only_selected="false" />
    <inkscape:path-effect
       effect="bspline"
       id="path-effect2797-9-2"
       is_visible="true"
       lpeversion="1"
       weight="33.333333"
       steps="2"
       helper_size="0"
       apply_no_weight="true"
       apply_with_weight="true"
       only_selected="false" />
    <inkscape:path-effect
       effect="bspline"
       id="path-effect1533-9"
       is_visible="true"
       lpeversion="1"
       weight="33.333333"
       steps="2"
       helper_size="0"
       apply_no_weight="true"
       apply_with_weight="true"
       only_selected="false" />
    <inkscape:path-effect
       effect="bspline"
       id="path-effect1533-9-3"
       is_visible="true"
       lpeversion="1"
       weight="33.333333"
       steps="2"
       helper_size="0"
       apply_no_weight="true"
       apply_with_weight="true"
       only_selected="false" />
  </defs>
  <g
     inkscape:label="Layer 1"
     inkscape:groupmode="layer"
     id="layer1">
    <g
       id="g3571"
       inkscape:label="topFront"
       transform="matrix(0.98838435,0.00542609,-0.00542077,0.99998521,2.1548728,-0.82040471)">
      <path
         style="fill:#333333;stroke-width:0.255649;-inkscape-stroke:none;stop-color:#000000"
         d="m 127.0998,150.75881 -6.12906,-25.54244 h 52.0083 l 8.21772,22.96261 0.97936,2.30595 z"
         id="path420"
         inkscape:label="blackTop" />
      <g
         id="g2276"
         inkscape:label="monitor">
        <path
           style="fill:#ffffff;stroke-width:0.264583;-inkscape-stroke:none;stop-color:#000000"
           d="m 131.24023,130.6688 4.70871,13.64538 h 36.43959 l -7.41762,-14.92554 h -33.97106 l -0.4503,0.26032 z"
           id="path632" />
        <rect
           style="fill:#000000;stroke-width:0.264583;-inkscape-stroke:none;stop-color:#000000"
           id="rect1183"
           width="1.4199259"
           height="2.0240195"
           x="72.174675"
           y="168.07945"
           transform="rotate(-21.709108)" />
        <rect
           style="fill:#000000;stroke-width:0.264583;-inkscape-stroke:none;stop-color:#000000"
           id="rect1185"
           width="0.14492549"
           height="0.053183235"
           x="130.86461"
           y="130.48241" />
        <path
           style="fill:#5f8dd3;stroke-width:0.264583;-inkscape-stroke:none;stop-color:#000000"
           d="m 142.54573,134.43216 0.85846,2.52195 h 13.24925 l -1.30536,-2.98203 h -13.01489 z"
           id="path634"
           inkscape:label="bigButton" />
        <g
           id="g1049"
           inkscape:label="smallButtons">
          <path
             style="fill:#5f8dd3;stroke-width:0.138121;-inkscape-stroke:none;stop-color:#000000"
             d="m 141.97265,138.78212 0.87319,2.53826 3.61008,0.0657 -1.11158,-3.00275 -3.54622,-0.0645 z"
             id="path634-6" />
          <path
             style="fill:#5f8dd3;stroke-width:0.138121;-inkscape-stroke:none;stop-color:#000000"
             d="m 147.23728,138.84557 0.87319,2.53826 3.61007,0.0657 -1.11157,-3.00276 -3.54623,-0.0645 z"
             id="path634-6-7" />
          <path
             style="fill:#5f8dd3;stroke-width:0.138121;-inkscape-stroke:none;stop-color:#000000"
             d="m 152.13756,138.80307 0.87319,2.53825 3.61006,0.0657 -1.11157,-3.00275 -3.54623,-0.0645 z"
             id="path634-6-7-5" />
          <path
             style="fill:#5f8dd3;stroke-width:0.138121;-inkscape-stroke:none;stop-color:#000000"
             d="m 156.63252,138.72345 0.8732,2.53826 3.61007,0.0657 -1.11158,-3.00276 -3.54622,-0.0645 z"
             id="path634-6-7-5-3" />
        </g>
        <g
           id="g1215"
           inkscape:label="topOrangeBar">
          <path
             style="fill:#ff7f2a;stroke-width:0.265667;-inkscape-stroke:none;stop-color:#000000"
             d="m 130.51687,129.38401 0.59304,1.00314 h 34.38082 l -0.61093,-1.03338 z"
             id="path1129" />
          <rect
             style="fill:#ff7f2a;stroke-width:0.264583;-inkscape-stroke:none;stop-color:#000000"
             id="rect1187"
             width="0.56794614"
             height="0.69678968"
             x="92.887817"
             y="187.7243"
             transform="rotate(-25.423942)" />
          <rect
             style="fill:#ececec;stroke-width:0.154354;-inkscape-stroke:none;stop-color:#000000"
             id="rect1187-6"
             width="0.35992652"
             height="0.37420404"
             x="73.188057"
             y="181.85857"
             transform="matrix(0.93957887,-0.3423325,0.52704056,0.84984013,0,0)" />
        </g>
        <g
           id="g939"
           inkscape:label="questionIcon"
           transform="matrix(0.49885132,0.27586779,-0.27586779,0.49885132,119.51,21.206942)">
          <path
             style="fill:#5f8dd3;stroke-width:0.236502;-inkscape-stroke:none;stop-color:#000000"
             id="path776"
             sodipodi:type="arc"
             sodipodi:cx="143.59885"
             sodipodi:cy="142.50984"
             sodipodi:rx="0.86790049"
             sodipodi:ry="0.7220701"
             sodipodi:start="0"
             sodipodi:end="6.263941"
             sodipodi:open="true"
             sodipodi:arc-type="arc"
             d="m 144.46675,142.50984 a 0.86790049,0.7220701 0 0 1 -0.86373,0.72206 0.86790049,0.7220701 0 0 1 -0.87203,-0.71511 0.86790049,0.7220701 0 0 1 0.85533,-0.72894 0.86790049,0.7220701 0 0 1 0.88027,0.7081"
             transform="matrix(0.99722394,-0.07446076,0.14181141,0.98989369,0,0)" />
          <text
             xml:space="preserve"
             style="font-size:1.76389px;line-height:normal;font-family:sans-serif;text-decoration-color:#000000;white-space:pre;fill:#ffffff;stroke-width:0.264583;-inkscape-stroke:none;stop-color:#000000"
             x="27.380487"
             y="209.87524"
             id="text884"
             transform="matrix(0.99312931,-0.48821742,0.64902805,0.68785927,0,0)"><tspan
               sodipodi:role="line"
               id="tspan882"
               style="font-size:1.76389px;stroke-width:0.264583"
               x="27.380487"
               y="209.87524">?</tspan></text>
        </g>
        <g
           id="g2294"
           inkscape:label="greyBar">
          <path
             style="fill:#e6e6e6;stroke-width:0.264583;-inkscape-stroke:none;stop-color:#000000"
             d="m 136.03547,144.32142 h 36.35288 l -0.50692,-0.878 h -36.29569 z"
             id="path1282" />
          <rect
             style="fill:#e6e6e6;stroke-width:0.264583;-inkscape-stroke:none;stop-color:#000000"
             id="rect1390"
             width="0.42001116"
             height="0.50173748"
             x="77.932602"
             y="181.79155"
             transform="rotate(-20.150224)" />
          <rect
             style="fill:#000000;stroke-width:0.264583;-inkscape-stroke:none;stop-color:#000000"
             id="rect1392"
             width="0.35794052"
             height="0.58590901"
             x="93.9599"
             y="173.28883"
             transform="rotate(-14.868421)" />
          <rect
             style="fill:#e6e6e6;stroke-width:0.195203;-inkscape-stroke:none;stop-color:#000000"
             id="rect1457"
             width="0.26931733"
             height="0.62332809"
             x="89.79158"
             y="209.18739"
             transform="matrix(0.87370261,-0.48646043,0.44584711,0.89510913,0,0)" />
          <rect
             style="fill:#e6e6e6;stroke-width:0.091132;-inkscape-stroke:none;stop-color:#000000"
             id="rect1457-7"
             width="0.11570735"
             height="0.31621993"
             x="101.74213"
             y="241.50055"
             transform="matrix(0.68116726,-0.73212783,0.42577629,0.90482847,0,0)" />
          <rect
             style="fill:#e6e6e6;stroke-width:0.264583;-inkscape-stroke:none;stop-color:#000000"
             id="rect1481"
             width="0.076683074"
             height="0.043708056"
             x="171.88248"
             y="143.44279" />
          <rect
             style="fill:#e6e6e6;stroke-width:0.180209;-inkscape-stroke:none;stop-color:#000000"
             id="rect1483"
             width="0.044743519"
             height="0.083335169"
             x="102.17138"
             y="226.55577"
             transform="matrix(0.78813331,-0.61550458,0.40512464,0.91426146,0,0)" />
        </g>
      </g>
    </g>
    <g
       id="g3976"
       inkscape:label="blackBox">
      <rect
         style="fill:#666666;stroke-width:0.264583;-inkscape-stroke:none;stop-color:#000000"
         id="rect3573"
         width="0.39405435"
         height="0.44925958"
         x="126.55822"
         y="150.82784"
         rx="0.19783999"
         ry="0.21985631" />
      <rect
         style="fill:#000000;stroke-width:0.264583;-inkscape-stroke:none;stop-color:#000000"
         id="rect3950"
         width="0.50997829"
         height="0.67000997"
         x="126.89873"
         y="150.58217"
         rx="0.19783999"
         ry="0.22281007" />
      <path
         style="fill:#333333;stroke-width:0.266474;-inkscape-stroke:none;stop-color:#000000"
         d="m 126.94994,209.36408 v -58.14087 h 54.32184 v 58.43053 z"
         id="path418"
         inkscape:label="blackBottom" />
      <path
         style="fill:#666666;stroke-width:0.385747;-inkscape-stroke:none;stop-color:#000000"
         d="m 127.75126,157.59021 c -0.54002,-9.89005 -1.36475,-9.03356 -1.69321,1.54785 -0.32847,10.58141 -0.16095,30.88642 0.21294,40.94828 0.3739,10.06186 0.95422,9.8808 1.41022,9.61805 0.45601,-0.26275 0.78791,-0.60743 0.8265,-11.09786 0.0386,-10.49044 -0.21642,-31.12626 -0.75645,-41.01632 z"
         id="path1531-6"
         inkscape:path-effect="#path-effect1533-3"
         inkscape:original-d="m 128.03626,146.84336 c -0.82457,0.85723 -1.6493,1.71372 -2.47421,2.56951 0.16769,20.3066 0.3352,40.61161 0.50256,60.91638 0.58049,-0.18039 1.16082,-0.36139 1.74095,-0.54318 0.3321,-0.344 0.664,-0.68869 0.99576,-1.0341 -0.25485,-20.63588 -0.50987,-41.2717 -0.76506,-61.90861 z" />
      <path
         style="fill:#333333;stroke-width:0.22164;-inkscape-stroke:none;stop-color:#000000"
         d="m 120.75318,125.15971 -12.86676,10.52303 v 7.76469 l 6.65009,9.42019 10.27457,-1.9797 z"
         id="path1589" />
      <g
         id="g2908"
         inkscape:label="blackSideSplit">
        <path
           style="fill:#000000;stroke-width:0.355463;-inkscape-stroke:none;stop-color:#000000"
           d="m 118.9568,152.03189 c 1.25738,-0.24117 3.77191,-0.72348 5.04668,-0.9153 1.27476,-0.19181 1.30977,-0.0937 0.0884,0.1918 -1.22137,0.28551 -3.69913,0.75877 -4.97384,0.95111 -1.27471,0.19234 -1.34655,0.1031 -1.38259,0.0583 -0.036,-0.0448 -0.036,-0.0448 1.22135,-0.28594 z"
           id="path2795"
           inkscape:path-effect="#path-effect2797"
           inkscape:original-d="m 117.69942,152.27307 c 2.51485,-0.48189 5.02938,-0.96421 7.54362,-1.44693 0.0353,0.0986 0.0702,0.19675 0.10511,0.29453 -2.47755,0.47368 -4.95532,0.94693 -7.43346,1.4198 -0.0714,-0.0886 -0.14322,-0.17786 -0.21528,-0.2674 z"
           inkscape:label="blackSplitSide" />
        <path
           style="fill:#000000;stroke-width:0.360372;-inkscape-stroke:none;stop-color:#000000"
           d="m 118.99661,151.934 c 1.25717,-0.24895 3.77128,-0.74679 5.04588,-0.94501 1.2746,-0.19823 1.3097,-0.0974 0.0886,0.19706 -1.22112,0.29447 -3.69848,0.78298 -4.97302,0.98174 -1.27454,0.19876 -1.34646,0.10711 -1.38253,0.0611 -0.0361,-0.046 -0.0361,-0.046 1.2211,-0.29492 z"
           id="path2795-2"
           inkscape:path-effect="#path-effect2797-9"
           inkscape:original-d="m 117.73944,152.18294 c 2.51443,-0.49741 5.02854,-0.99526 7.54236,-1.49353 0.0354,0.10131 0.0704,0.20216 0.10537,0.30263 -2.47714,0.48895 -4.9545,0.97745 -7.43223,1.46556 -0.0715,-0.091 -0.14337,-0.18269 -0.21551,-0.27466 z"
           inkscape:label="blackSplitSide" />
        <path
           style="fill:#000000;stroke-width:0.360372;-inkscape-stroke:none;stop-color:#000000"
           d="m 119.00741,152.02555 c 1.25717,-0.24895 3.77128,-0.74679 5.04588,-0.94501 1.2746,-0.19823 1.3097,-0.0974 0.0886,0.19706 -1.22112,0.29447 -3.69848,0.78298 -4.97302,0.98174 -1.27454,0.19876 -1.34646,0.10711 -1.38253,0.0611 -0.0361,-0.046 -0.0361,-0.046 1.2211,-0.29492 z"
           id="path2795-2-8"
           inkscape:path-effect="#path-effect2797-9-2"
           inkscape:original-d="m 117.75024,152.27449 c 2.51443,-0.49741 5.02854,-0.99526 7.54236,-1.49353 0.0354,0.10131 0.0704,0.20216 0.10537,0.30263 -2.47714,0.48895 -4.9545,0.97745 -7.43223,1.46556 -0.0715,-0.091 -0.14337,-0.18269 -0.21551,-0.27466 z"
           inkscape:label="blackSplitSide" />
      </g>
      <path
         style="fill:#333333;stroke-width:0.23666;-inkscape-stroke:none;stop-color:#000000"
         d="m 127.23951,209.73354 -10.00465,-7.21966 v -46.96097 l -1.25831,-2.72412 10.59045,-2.06235 0.32221,2.00833 z"
         id="path1812"
         inkscape:label="blackBottomSide" />
      <path
         style="fill:#666666;stroke-width:0.208378;-inkscape-stroke:none;stop-color:#000000"
         d="m 121.91611,127.9223 c -1.14902,-4.30926 -1.5817,-3.74306 -1.07429,1.07154 0.50741,4.8146 1.95473,13.87698 3.01664,18.29992 1.06191,4.42294 1.73828,4.20656 2.16349,3.98448 0.42522,-0.22208 0.59936,-0.44996 -0.24614,-5.15614 -0.84549,-4.70618 -2.71067,-13.89055 -3.8597,-18.1998 z"
         id="path1531"
         inkscape:path-effect="#path-effect1533"
         inkscape:original-d="m 121.19986,123.04672 c -0.43252,0.56651 -0.8652,1.13271 -1.29807,1.69864 1.44757,9.06306 2.8949,18.12544 4.34207,27.18777 0.6766,-0.21614 1.35297,-0.43254 2.02924,-0.64919 0.17431,-0.22759 0.34844,-0.45548 0.52241,-0.68361 -1.86508,-9.18443 -3.73025,-18.3688 -5.59565,-27.55361 z"
         sodipodi:nodetypes="cccccc" />
      <path
         style="fill:#666666;stroke-width:0.20816;-inkscape-stroke:none;stop-color:#000000"
         d="m 121.81609,127.85724 c -1.29207,-4.25946 -1.70562,-3.68033 -1.03797,1.10456 0.66765,4.78489 2.41633,13.77491 3.62512,18.15065 1.20879,4.37575 1.87756,4.13736 2.29513,3.90167 0.41757,-0.23568 0.58402,-0.46877 -0.41791,-5.13424 -1.00194,-4.66546 -3.17231,-13.76318 -4.46437,-18.02264 z"
         id="path1531-7"
         inkscape:path-effect="#path-effect1533-9"
         inkscape:original-d="m 120.93767,123.01851 c -0.41339,0.57945 -0.82695,1.15858 -1.24071,1.73747 1.74895,8.99068 3.49763,17.9807 5.24615,26.97066 0.66902,-0.23815 1.33779,-0.47656 2.00646,-0.71522 0.16663,-0.2328 0.33306,-0.4659 0.49933,-0.69924 -2.17027,-9.09779 -4.34063,-18.19551 -6.51123,-27.29367 z"
         sodipodi:nodetypes="cccccc" />
    </g>
    <g
       id="g2283"
       inkscape:label="silver"
       style="display:inline">
      <path
         style="fill:#e6e6e6;stroke-width:0.309945;-inkscape-stroke:none;stop-color:#000000"
         d="m 114.65891,155.58434 -36.95113,-0.21713 -5.151534,-13.064 33.007764,0.19396 z"
         id="path1593" />
      <path
         style="fill:#e6e6e6;stroke-width:0.33439;-inkscape-stroke:none;stop-color:#000000"
         d="m 121.56192,155.58434 -43.009513,-0.21713 -5.996161,-13.064 38.419604,0.19396 z"
         id="path1741"
         inkscape:label="silverTop" />
      <path
         style="display:inline;fill:#ececec;stroke-width:0.270802;-inkscape-stroke:none;stop-color:#000000"
         d="m 77.183532,155.44133 10.337538,47.9591 h 33.77799 v -47.96509 z"
         id="path1705"
         inkscape:label="silverFront" />
      <path
         style="fill:#808080;stroke-width:0.276836;-inkscape-stroke:none;stop-color:#000000"
         d="M 87.341494,203.1011 72.129633,179.25202 v -37.07908 l 5.823692,13.33199 z"
         id="path1756"
         inkscape:label="silverSide" />
      <path
         style="fill:#666666;stroke-width:0.171377;-inkscape-stroke:none;stop-color:#000000"
         d="m 77.345463,153.29811 c 0.770949,2.71718 0.404729,3.63323 -0.731503,1.92336 -1.136232,-1.70986 -3.042125,-6.04543 -3.886519,-8.57828 -0.844394,-2.53285 -0.627471,-3.26287 -0.445305,-3.81219 0.182167,-0.54932 0.329541,-0.91796 1.357047,1.15688 1.027506,2.07484 2.935331,6.59306 3.70628,9.31023 z"
         id="path1531-6-6"
         inkscape:path-effect="#path-effect1533-3-0"
         inkscape:original-d="m 78.482503,155.09956 c -0.366231,0.91567 -0.732449,1.83172 -1.098657,2.74814 -1.905994,-4.33614 -3.811891,-8.67171 -5.717816,-13.00703 0.216914,-0.73036 0.433827,-1.46038 0.65075,-2.18998 0.147379,-0.36907 0.294759,-0.73771 0.442161,-1.10602 1.907879,4.51799 3.815699,9.03622 5.723562,13.55489 z"
         inkscape:label="silverTopEdge" />
      <path
         style="fill:#666666;stroke-width:0.288304;-inkscape-stroke:none;stop-color:#000000"
         d="m 87.69087,201.68954 c 0.0389,1.48593 0.116742,4.45916 -1.643406,-2.16248 -1.760147,-6.62163 -5.357864,-22.83735 -7.220919,-32.15215 -1.863055,-9.3148 -1.991571,-11.72834 -2.071473,-13.53338 -0.0799,-1.80505 -0.111225,-3.00152 1.712921,4.8268 1.824147,7.82832 5.503899,24.68105 7.343939,33.10817 1.84004,8.42711 1.840036,8.42711 1.878938,9.91304 z"
         id="path1531-6-6-6"
         inkscape:path-effect="#path-effect1533-3-0-2"
         inkscape:original-d="m 87.651968,200.20361 c 0.07766,2.97186 0.155505,5.94509 0.233517,8.91958 -3.598062,-16.21778 -7.195781,-32.4335 -10.793416,-48.64836 -0.128672,-2.41472 -0.257197,-4.82825 -0.385535,-7.24036 -0.0315,-1.19799 -0.06283,-2.39446 -0.09398,-3.58978 3.679697,16.85194 7.359446,33.70467 11.039418,50.55892 z"
         inkscape:label="silverDiagnoalEdge" />
      <path
         style="fill:#666666;stroke-width:0.279853;-inkscape-stroke:none;stop-color:#000000"
         d="m 74.703887,183.40432 c 2.565408,4.04559 7.696019,12.13643 10.174408,15.80843 2.478389,3.672 2.304691,2.9252 -0.260694,-1.3569 -2.565384,-4.2821 -7.522388,-12.09916 -10.000941,-15.7712 -2.478553,-3.67203 -2.478357,-3.19884 -2.47826,-2.96237 9.8e-5,0.23646 7.8e-5,0.23646 2.565487,4.28204 z"
         id="path1973"
         inkscape:path-effect="#path-effect1975"
         inkscape:original-d="m 72.138478,179.35874 c 5.130908,8.09111 10.261521,16.18195 15.391841,24.27254 -0.173415,-0.74658 -0.347115,-1.49338 -0.521113,-2.24048 -4.956903,-7.8171 -9.913904,-15.63417 -14.871294,-23.45165 5.86e-4,0.47347 5.86e-4,0.94666 5.86e-4,1.41959 z"
         inkscape:label="silverSideBottomedge" />
    </g>
    <g
       id="g3517"
       inkscape:label="box"
       style="display:inline">
      <path
         style="fill:#4d4d4d;stroke-width:0.332041;-inkscape-stroke:none;stop-color:#000000"
         d="m 90.447904,183.67664 c 0.919562,-0.21346 2.650021,0.62443 3.51504,2.02787 0.865019,1.40345 0.865019,3.37225 -0.05416,3.58565 -0.919177,0.21339 -2.757824,-1.3286 -3.623246,-2.732 -0.865422,-1.4034 -0.757196,-2.66807 0.162366,-2.88152 z"
         id="path2385"
         inkscape:path-effect="#path-effect2387"
         inkscape:original-d="m 89.636597,182.6251 c 1.730817,0.83819 3.461274,1.67608 5.191366,2.51365 3.63e-4,1.96921 3.63e-4,3.93801 0,5.90655 -1.838361,-1.54174 -3.677009,-3.08373 -5.516056,-4.62607 0.108598,-1.26444 0.216822,-2.52911 0.32469,-3.79413 z" />
      <path
         style="fill:#000000;stroke-width:0.264583;-inkscape-stroke:none;stop-color:#000000"
         d="m 89.717995,185.08479 4.394224,4.39423 v 11.09785 l -5.376603,-9.31255 z"
         id="path2451" />
      <path
         style="fill:#000000;stroke-width:0.317287;-inkscape-stroke:none;stop-color:#000000"
         d="m 121.94463,184.12214 6.32194,4.39231 v 11.093 l -7.73529,-9.30848 z"
         id="path2451-2" />
      <path
         style="fill:#666666;stroke-width:0.290569;-inkscape-stroke:none;stop-color:#000000"
         d="m 128.08384,188.44491 c 1.4144,0.36514 1.4144,-0.30059 -4e-5,-1.39256 -1.41443,-1.09196 -4.24352,-2.61001 -5.65828,-3.22371 -1.41475,-0.61371 -1.41475,-0.32312 -1.41475,-0.0324 0,0.29069 0,0.58149 0,0.83016 0,0.24866 0,0.45516 1.41478,1.25633 1.41478,0.80117 4.24388,2.19705 5.65829,2.5622 z"
         id="path2727"
         inkscape:path-effect="#path-effect2729"
         inkscape:original-d="m 129.49824,189.4755 c 3e-4,-0.66545 3e-4,-1.33118 0,-1.99718 -2.82892,-1.51784 -5.65801,-3.03589 -8.48747,-4.55425 3e-4,0.29086 3e-4,0.58145 0,0.87174 3e-4,0.2911 3e-4,0.5819 0,0.87244 3e-4,0.20679 3e-4,0.41329 0,0.61952 2.82951,1.39622 5.65861,2.7921 8.48747,4.18773 z" />
      <path
         style="fill:#1a1a1a;stroke-width:0.264583;-inkscape-stroke:none;stop-color:#000000"
         d="m 94.293916,188.40877 h 34.968704 l -8.3403,-4.81528 H 90.340208 Z"
         id="path2393" />
      <path
         style="fill:#4d4d4d;stroke-width:0.502884;-inkscape-stroke:none;stop-color:#000000"
         d="m 93.630312,190.1887 c -0.09007,2.08506 -0.2702,6.25486 0.0125,8.35934 0.282706,2.10449 1.027369,2.14389 1.62317,0.0958 0.595801,-2.04814 1.043587,-6.1839 0.761744,-8.28857 -0.281842,-2.10468 -1.294175,-2.17803 -1.800764,-2.21474 -0.506589,-0.0367 -0.506584,-0.0369 -0.596655,2.04821 z"
         id="path2567"
         inkscape:path-effect="#path-effect2569"
         inkscape:original-d="m 93.720383,188.10363 c -0.1793,4.17017 -0.359429,8.33997 -0.540387,12.50944 0.745514,0.0397 1.490172,0.0792 2.234019,0.11823 0.448629,-4.13555 0.896412,-8.27131 1.343376,-12.40745 -1.011538,-0.0728 -2.023834,-0.14667 -3.037013,-0.22007 z" />
      <path
         style="fill:#1a1a1a;stroke-width:0.262783;-inkscape-stroke:none;stop-color:#000000"
         d="m 94.613675,200.47455 33.516395,-1.11953 0.25679,-11.19528 h -5.70728 v 5.97157 H 98.933846 v -5.83916 h -3.934241 z"
         id="path2559" />
      <path
         style="fill:#1a1a1a;stroke-width:0.250432;-inkscape-stroke:none;stop-color:#000000"
         d="m 99.118702,188.54012 v 4.04152 h 23.298438 v -4.13316 z"
         id="path2637" />
      <path
         style="fill:#1a1a1a;stroke-width:0.279213;-inkscape-stroke:none;stop-color:#000000"
         d="m 123.21488,194.21731 -2.10229,-0.60505 H 99.510285 l -0.565817,-0.90108 v 1.64869 z"
         id="path2639" />
      <path
         style="fill:#000000;stroke-width:0.327814;-inkscape-stroke:none;stop-color:#000000"
         d="m 98.802158,192.56954 h 22.766562 l -0.18882,1.04111 H 99.248732 Z"
         id="path2641" />
      <path
         style="fill:#1a1a1a;stroke-width:0.264583;-inkscape-stroke:none;stop-color:#000000"
         d="m 99.103007,188.55781 v 4.13382 l 0.392525,0.67988 -0.596051,-0.59605 v -4.44788 h 22.172739 l -0.0577,0.21541 z"
         id="path2643" />
      <rect
         style="fill:#ececec;stroke-width:0.0609452;-inkscape-stroke:none;stop-color:#000000"
         id="rect2697-0"
         width="0.62879497"
         height="2.4075875"
         x="-71.342079"
         y="208.43156"
         transform="rotate(-43.855322)" />
      <rect
         style="fill:#ececec;stroke-width:0.383157;-inkscape-stroke:none;stop-color:#000000"
         id="rect2697"
         width="24.853264"
         height="2.4075875"
         x="94.542015"
         y="200.05359" />
      <rect
         style="fill:#333333;stroke-width:0.264583;-inkscape-stroke:none;stop-color:#000000"
         id="rect2733"
         width="2.8415177"
         height="3.0393913"
         x="128.50385"
         y="187.38217" />
    </g>
    <g
       id="g3495"
       inkscape:label="conorPatch">
      <rect
         style="fill:#333333;stroke-width:0.177066;-inkscape-stroke:none;stop-color:#000000"
         id="rect2965"
         width="0.90672874"
         height="0.33143798"
         x="-196.46883"
         y="53.832008"
         transform="matrix(-0.40347935,-0.91498875,0.84412263,-0.53615015,0,0)" />
      <rect
         style="fill:#333333;stroke-width:0.0627325;-inkscape-stroke:none;stop-color:#000000"
         id="rect2965-2"
         width="0.25400096"
         height="0.14851156"
         x="-199.10115"
         y="-184.4335"
         transform="matrix(-0.9957334,0.09227675,0.39735101,-0.9176667,0,0)" />
      <rect
         style="fill:#333333;stroke-width:0.0383312;-inkscape-stroke:none;stop-color:#000000"
         id="rect2965-2-9"
         width="0.10188269"
         height="0.13823363"
         x="-33.973495"
         y="-206.67802"
         transform="matrix(-0.59603992,0.8029548,-0.50722308,-0.8618148,0,0)" />
      <rect
         style="fill:#333333;stroke-width:0.0383312;-inkscape-stroke:none;stop-color:#000000"
         id="rect2965-2-9-3"
         width="0.10188269"
         height="0.13823363"
         x="-33.979736"
         y="-206.57048"
         transform="matrix(-0.59603992,0.8029548,-0.50722308,-0.8618148,0,0)" />
      <rect
         style="fill:#333333;stroke-width:0.0383312;-inkscape-stroke:none;stop-color:#000000"
         id="rect2965-2-9-1"
         width="0.10188269"
         height="0.13823363"
         x="-33.940449"
         y="-206.74847"
         transform="matrix(-0.59603992,0.8029548,-0.50722308,-0.8618148,0,0)" />
      <rect
         style="fill:#000000;stroke-width:0.0383312;-inkscape-stroke:none;stop-color:#000000"
         id="rect2965-2-9-1-7"
         width="0.10188269"
         height="0.13823363"
         x="186.07793"
         y="-22.78178"
         transform="matrix(0.5522444,0.83368227,-0.98297718,0.18372768,0,0)" />
      <rect
         style="fill:#000000;stroke-width:0.0383312;-inkscape-stroke:none;stop-color:#000000"
         id="rect2965-2-9-1-7-8"
         width="0.10188269"
         height="0.13823363"
         x="186.08084"
         y="-22.648245"
         transform="matrix(0.5522444,0.83368227,-0.98297718,0.18372768,0,0)" />
      <rect
         style="fill:#000000;stroke-width:0.0383312;-inkscape-stroke:none;stop-color:#000000"
         id="rect2965-2-9-1-7-8-4"
         width="0.10188269"
         height="0.13823363"
         x="186.00522"
         y="-22.687277"
         transform="matrix(0.5522444,0.83368227,-0.98297718,0.18372768,0,0)" />
      <rect
         style="fill:#000000;stroke-width:0.0383312;-inkscape-stroke:none;stop-color:#000000"
         id="rect2965-2-9-1-7-8-4-5"
         width="0.10188269"
         height="0.13823363"
         x="185.97836"
         y="-22.774406"
         transform="matrix(0.5522444,0.83368227,-0.98297718,0.18372768,0,0)" />
      <rect
         style="fill:#000000;stroke-width:0.0383312;-inkscape-stroke:none;stop-color:#000000"
         id="rect2965-2-9-1-7-8-4-5-0"
         width="0.10188269"
         height="0.13823363"
         x="186.00868"
         y="-22.638739"
         transform="matrix(0.5522444,0.83368227,-0.98297718,0.18372768,0,0)" />
      <rect
         style="fill:#000000;stroke-width:0.0383312;-inkscape-stroke:none;stop-color:#000000"
         id="rect2965-2-9-1-7-8-4-5-0-3"
         width="0.10188269"
         height="0.13823363"
         x="186.08803"
         y="-22.564093"
         transform="matrix(0.5522444,0.83368227,-0.98297718,0.18372768,0,0)" />
      <rect
         style="fill:#333333;stroke-width:0.0383312;-inkscape-stroke:none;stop-color:#000000"
         id="rect2965-2-9-1-7-8-4-5-0-3-6"
         width="0.10188269"
         height="0.13823363"
         x="161.37489"
         y="-64.660828"
         transform="matrix(0.37374293,0.92753233,-0.99985147,-0.01723467,0,0)" />
      <rect
         style="fill:#333333;stroke-width:0.0383312;-inkscape-stroke:none;stop-color:#000000"
         id="rect2965-2-9-1-9"
         width="0.10188269"
         height="0.13823363"
         x="-33.984406"
         y="-206.48421"
         transform="matrix(-0.59603992,0.8029548,-0.50722308,-0.8618148,0,0)" />
      <rect
         style="fill:#333333;stroke-width:0.0383312;-inkscape-stroke:none;stop-color:#000000"
         id="rect2965-2-9-1-9-4"
         width="0.10188269"
         height="0.13823363"
         x="-33.984936"
         y="-206.38896"
         transform="matrix(-0.59603992,0.8029548,-0.50722308,-0.8618148,0,0)" />
    </g>
    <g
       id="g3959"
       inkscape:label="frontBlackCrack">
      <rect
         style="fill:#000000;stroke-width:0.281186;-inkscape-stroke:none;stop-color:#000000"
         id="rect3424"
         width="53.875999"
         height="0.58377838"
         x="127.11282"
         y="150.6387"
         ry="0.22281007"
         rx="0.19783999"
         inkscape:label="shadow" />
      <rect
         style="fill:#00aad4;stroke-width:0.211872;-inkscape-stroke:none;stop-color:#000000"
         id="rect3520"
         width="24.42174"
         height="0.37699953"
         x="127.42042"
         y="150.76054"
         ry="0.18849976"
         rx="2.6560853"
         inkscape:label="blueLIght" />
      <rect
         style="fill:#ffffff;stroke-width:0.141107;-inkscape-stroke:none;stop-color:#000000"
         id="rect3520-1"
         width="23.600248"
         height="0.17304145"
         x="127.70704"
         y="150.87209"
         ry="0.086520724"
         rx="2.5667408"
         inkscape:label="whitLight" />
    </g>
  </g>
</svg>
